<?xml version="1.0" encoding="UTF-8" standalone="no"?>
<!DOCTYPE svg PUBLIC "-//W3C//DTD SVG 1.1//EN" "http://www.w3.org/Graphics/SVG/1.1/DTD/svg11.dtd">
<svg width="100%" height="100%" viewBox="0 0 425 137" version="1.1" xmlns="http://www.w3.org/2000/svg" xmlns:xlink="http://www.w3.org/1999/xlink" xml:space="preserve" xmlns:serif="http://www.serif.com/" style="fill-rule:evenodd;clip-rule:evenodd;stroke-linejoin:round;stroke-miterlimit:1.41421;">
    <path d="M106,-0.018L106,115.982L0,115.982L0,-0.018L106,-0.018ZM61.166,17.974L43.867,17.974L10.759,99.996L30.842,99.996L36.907,83.591L68.125,83.591L74.19,99.996L94.273,99.996L61.166,17.974ZM61.762,67.187L43.27,67.187L52.417,43.326L52.616,43.326L61.762,67.187Z" style="fill:white;"/>
    <g transform="matrix(6.2138,0,0,6.2138,-251.264,-1415.08)">
        <path d="M59.376,243.825L62.208,243.825L62.208,239.505C62.208,239.297 62.416,237.841 63.888,237.841C64.832,237.841 65.36,238.289 65.36,238.289L66.544,235.889C66.544,235.889 65.808,235.377 64.752,235.377C63.136,235.377 62.24,236.801 62.24,236.801L62.208,236.801L62.208,235.617L59.376,235.617L59.376,243.825Z" style="fill:white;fill-rule:nonzero;"/>
        <path d="M66.624,239.729C66.624,242.129 68.304,244.065 70.704,244.065C71.824,244.065 72.784,243.569 73.392,242.897L73.424,242.897L73.424,243.825L76.224,243.825L76.224,235.617L73.392,235.617L73.392,236.401C72.72,235.745 71.808,235.377 70.704,235.377C68.304,235.377 66.624,237.329 66.624,239.729ZM69.632,239.729C69.632,238.593 70.48,237.793 71.552,237.793C72.608,237.793 73.456,238.593 73.456,239.729C73.456,240.849 72.656,241.649 71.552,241.649C70.4,241.649 69.632,240.849 69.632,239.729Z" style="fill:white;fill-rule:nonzero;"/>
        <path d="M77.776,245.841C78.64,247.841 80.608,248.225 82.32,248.225C85.12,248.225 87.152,246.801 87.152,244.049L87.152,235.617L84.32,235.617L84.32,236.353L84.272,236.353C83.6,235.729 82.72,235.377 81.632,235.377C79.232,235.377 77.552,237.329 77.552,239.729C77.552,242.129 79.232,244.065 81.632,244.065C82.752,244.065 83.712,243.905 84.32,243.233L84.32,243.841C84.32,245.297 83.104,245.761 82.32,245.761C81.088,245.761 80.4,245.201 80.096,244.705L77.776,245.841ZM80.56,239.729C80.56,238.593 81.408,237.793 82.48,237.793C83.536,237.793 84.384,238.593 84.384,239.729C84.384,240.849 83.584,241.649 82.48,241.649C81.328,241.649 80.56,240.849 80.56,239.729Z" style="fill:white;fill-rule:nonzero;"/>
        <path d="M88.4,239.729C88.4,242.257 90.384,244.065 93.344,244.065C96.176,244.065 98.24,242.257 98.24,239.729C98.24,237.169 96.064,235.377 93.344,235.377C90.576,235.377 88.4,237.169 88.4,239.729ZM91.408,239.729C91.408,238.593 92.256,237.793 93.328,237.793C94.384,237.793 95.232,238.593 95.232,239.729C95.232,240.849 94.432,241.649 93.328,241.649C92.176,241.649 91.408,240.849 91.408,239.729Z" style="fill:white;fill-rule:nonzero;"/>
        <path d="M99.536,243.825L102.368,243.825L102.368,239.185C102.368,238.369 103.2,237.585 104.048,237.585C104.96,237.585 105.52,238.369 105.52,239.185L105.52,243.825L108.352,243.825L108.352,238.417C108.352,236.129 106.256,235.377 104.752,235.377C103.856,235.377 103.04,235.841 102.4,236.481L102.368,236.481L102.368,235.617L99.536,235.617L99.536,243.825Z" style="fill:white;fill-rule:nonzero;"/>
    </g>
    <g transform="matrix(1.2235,0,0,1.18794,-115.193,-228.913)">
        <path d="M338.63,306.955L338.63,307.691L330.902,307.691L330.902,296.491L338.39,296.491L338.39,297.227L331.718,297.227L331.718,301.643L337.686,301.643L337.686,302.363L331.718,302.363L331.718,306.955L338.63,306.955Z" style="fill:white;fill-rule:nonzero;stroke:white;stroke-width:0.83px;"/>
        <path d="M350.726,296.491L350.726,307.691L350.054,307.691L342.422,297.963L342.422,307.691L341.606,307.691L341.606,296.491L342.294,296.491L349.91,306.219L349.91,296.491L350.726,296.491Z" style="fill:white;fill-rule:nonzero;stroke:white;stroke-width:0.83px;"/>
        <path d="M356.774,297.227L352.742,297.227L352.742,296.491L361.622,296.491L361.622,297.227L357.59,297.227L357.59,307.691L356.774,307.691L356.774,297.227Z" style="fill:white;fill-rule:nonzero;stroke:white;stroke-width:0.83px;"/>
        <path d="M371.366,306.955L371.366,307.691L363.638,307.691L363.638,296.491L371.126,296.491L371.126,297.227L364.454,297.227L364.454,301.643L370.422,301.643L370.422,302.363L364.454,302.363L364.454,306.955L371.366,306.955Z" style="fill:white;fill-rule:nonzero;stroke:white;stroke-width:0.83px;"/>
        <path d="M382.118,307.691L379.446,303.947C379.052,304 378.689,304.027 378.358,304.027L375.158,304.027L375.158,307.691L374.342,307.691L374.342,296.491L378.358,296.491C379.766,296.491 380.87,296.824 381.67,297.491C382.47,298.157 382.87,299.083 382.87,300.267C382.87,301.152 382.644,301.896 382.19,302.499C381.737,303.101 381.089,303.525 380.246,303.771L383.046,307.691L382.118,307.691ZM378.358,303.307C379.553,303.307 380.465,303.043 381.094,302.515C381.724,301.987 382.038,301.237 382.038,300.267C382.038,299.296 381.724,298.547 381.094,298.019C380.465,297.491 379.553,297.227 378.358,297.227L375.158,297.227L375.158,303.307L378.358,303.307Z" style="fill:white;fill-rule:nonzero;stroke:white;stroke-width:0.83px;"/>
        <path d="M389.878,296.491C391.286,296.491 392.39,296.824 393.19,297.491C393.99,298.157 394.39,299.083 394.39,300.267C394.39,301.44 393.99,302.36 393.19,303.027C392.39,303.693 391.286,304.027 389.878,304.027L386.678,304.027L386.678,307.691L385.862,307.691L385.862,296.491L389.878,296.491ZM389.878,303.291C391.073,303.291 391.985,303.029 392.614,302.507C393.244,301.984 393.558,301.237 393.558,300.267C393.558,299.296 393.244,298.547 392.614,298.019C391.985,297.491 391.073,297.227 389.878,297.227L386.678,297.227L386.678,303.291L389.878,303.291Z" style="fill:white;fill-rule:nonzero;stroke:white;stroke-width:0.83px;"/>
        <path d="M404.918,307.691L402.246,303.947C401.852,304 401.489,304.027 401.158,304.027L397.958,304.027L397.958,307.691L397.142,307.691L397.142,296.491L401.158,296.491C402.566,296.491 403.67,296.824 404.47,297.491C405.27,298.157 405.67,299.083 405.67,300.267C405.67,301.152 405.444,301.896 404.99,302.499C404.537,303.101 403.889,303.525 403.046,303.771L405.846,307.691L404.918,307.691ZM401.158,303.307C402.353,303.307 403.265,303.043 403.894,302.515C404.524,301.987 404.838,301.237 404.838,300.267C404.838,299.296 404.524,298.547 403.894,298.019C403.265,297.491 402.353,297.227 401.158,297.227L397.958,297.227L397.958,303.307L401.158,303.307Z" style="fill:white;fill-rule:nonzero;stroke:white;stroke-width:0.83px;"/>
        <rect x="408.662" y="296.491" width="0.816" height="11.2" style="fill:white;fill-rule:nonzero;stroke:white;stroke-width:0.83px;"/>
        <path d="M416.326,307.771C415.505,307.771 414.724,307.629 413.982,307.347C413.241,307.064 412.662,306.699 412.246,306.251L412.614,305.643C413.009,306.059 413.54,306.397 414.206,306.659C414.873,306.92 415.574,307.051 416.31,307.051C417.377,307.051 418.182,306.848 418.726,306.443C419.27,306.037 419.542,305.509 419.542,304.859C419.542,304.357 419.398,303.957 419.11,303.659C418.822,303.36 418.465,303.131 418.038,302.971C417.612,302.811 417.036,302.645 416.31,302.475C415.489,302.272 414.83,302.075 414.334,301.883C413.838,301.691 413.417,301.395 413.07,300.995C412.724,300.595 412.55,300.059 412.55,299.387C412.55,298.843 412.694,298.344 412.982,297.891C413.27,297.437 413.71,297.077 414.302,296.811C414.894,296.544 415.633,296.411 416.518,296.411C417.137,296.411 417.745,296.501 418.342,296.683C418.94,296.864 419.457,297.109 419.894,297.419L419.59,298.075C419.142,297.765 418.649,297.531 418.11,297.371C417.572,297.211 417.041,297.131 416.518,297.131C415.484,297.131 414.7,297.339 414.166,297.755C413.633,298.171 413.366,298.709 413.366,299.371C413.366,299.872 413.51,300.272 413.798,300.571C414.086,300.869 414.444,301.099 414.87,301.259C415.297,301.419 415.878,301.589 416.614,301.771C417.436,301.973 418.092,302.171 418.582,302.363C419.073,302.555 419.492,302.845 419.838,303.235C420.185,303.624 420.358,304.149 420.358,304.811C420.358,305.355 420.212,305.851 419.918,306.299C419.625,306.747 419.174,307.104 418.566,307.371C417.958,307.637 417.212,307.771 416.326,307.771Z" style="fill:white;fill-rule:nonzero;stroke:white;stroke-width:0.83px;"/>
        <path d="M430.854,306.955L430.854,307.691L423.126,307.691L423.126,296.491L430.614,296.491L430.614,297.227L423.942,297.227L423.942,301.643L429.91,301.643L429.91,302.363L423.942,302.363L423.942,306.955L430.854,306.955Z" style="fill:white;fill-rule:nonzero;stroke:white;stroke-width:0.83px;"/>
        <path d="M436.774,307.771C435.953,307.771 435.172,307.629 434.43,307.347C433.689,307.064 433.11,306.699 432.694,306.251L433.062,305.643C433.457,306.059 433.988,306.397 434.654,306.659C435.321,306.92 436.022,307.051 436.758,307.051C437.825,307.051 438.63,306.848 439.174,306.443C439.718,306.037 439.99,305.509 439.99,304.859C439.99,304.357 439.846,303.957 439.558,303.659C439.27,303.36 438.913,303.131 438.486,302.971C438.06,302.811 437.484,302.645 436.758,302.475C435.937,302.272 435.278,302.075 434.782,301.883C434.286,301.691 433.865,301.395 433.518,300.995C433.172,300.595 432.998,300.059 432.998,299.387C432.998,298.843 433.142,298.344 433.43,297.891C433.718,297.437 434.158,297.077 434.75,296.811C435.342,296.544 436.081,296.411 436.966,296.411C437.585,296.411 438.193,296.501 438.79,296.683C439.388,296.864 439.905,297.109 440.342,297.419L440.038,298.075C439.59,297.765 439.097,297.531 438.558,297.371C438.02,297.211 437.489,297.131 436.966,297.131C435.932,297.131 435.148,297.339 434.614,297.755C434.081,298.171 433.814,298.709 433.814,299.371C433.814,299.872 433.958,300.272 434.246,300.571C434.534,300.869 434.892,301.099 435.318,301.259C435.745,301.419 436.326,301.589 437.062,301.771C437.884,301.973 438.54,302.171 439.03,302.363C439.521,302.555 439.94,302.845 440.286,303.235C440.633,303.624 440.806,304.149 440.806,304.811C440.806,305.355 440.66,305.851 440.366,306.299C440.073,306.747 439.622,307.104 439.014,307.371C438.406,307.637 437.66,307.771 436.774,307.771Z" style="fill:white;fill-rule:nonzero;stroke:white;stroke-width:0.83px;"/>
    </g>
</svg>
